<svg xmlns="http://www.w3.org/2000/svg" width="1280" height="1000" viewBox="0 0 1280 1000" role="img">
<title>Микроархитектура одного PE для microbatch из 8 изображений</title>
<defs><marker id="arrow" viewBox="0 0 10 10" refX="9" refY="5" markerWidth="8" markerHeight="8" orient="auto-start-reverse"><path d="M0 0 L10 5 L0 10 Z" fill="#42566d"/></marker></defs>
<rect width="1280" height="1000" fill="white"/>
<text x="42" y="47" font-family="Segoe UI,Arial,sans-serif" font-size="29" fill="#152d46" text-anchor="start" font-weight="600">02 / Микроархитектура одного PE для microbatch из 8 изображений</text>
<text x="42" y="82" font-family="Segoe UI,Arial,sans-serif" font-size="17" fill="#536477" text-anchor="start">local tile: 8 images × 4 outputs × 16 local inputs. PE = k mod 4.</text>
<rect x="42" y="125" width="440" height="70" rx="10" fill="#fff3dc" stroke="#7d94aa" stroke-width="1.6"/>
<text x="262.0" y="153.5" font-family="Segoe UI,Arial,sans-serif" font-size="18" fill="#152d46" text-anchor="middle">Tile controller: t, m, маски</text>
<text x="262.0" y="178.5" font-family="Segoe UI,Arial,sans-serif" font-size="18" fill="#152d46" text-anchor="middle">готовность A/B · valid/ready</text>
<rect x="590" y="125" width="648" height="70" rx="10" fill="#eef5fc" stroke="#7d94aa" stroke-width="1.6"/>
<text x="914.0" y="153.5" font-family="Segoe UI,Arial,sans-serif" font-size="18" fill="#152d46" text-anchor="middle">DMA пишет свободный буфер; PE читает готовый</text>
<text x="914.0" y="178.5" font-family="Segoe UI,Arial,sans-serif" font-size="18" fill="#152d46" text-anchor="middle">Перезапись разрешена только после COMPUTE_DONE</text>
<rect x="42" y="260" width="355" height="90" rx="10" fill="#eef5fc" stroke="#7d94aa" stroke-width="1.6"/>
<text x="219.5" y="286.0" font-family="Segoe UI,Arial,sans-serif" font-size="18" fill="#152d46" text-anchor="middle">Input SRAM A/B</text>
<text x="219.5" y="311.0" font-family="Segoe UI,Arial,sans-serif" font-size="18" fill="#152d46" text-anchor="middle">2 × [8][16] float32</text>
<text x="219.5" y="336.0" font-family="Segoe UI,Arial,sans-serif" font-size="18" fill="#152d46" text-anchor="middle">1024 байта</text>
<rect x="475" y="260" width="763" height="90" rx="10" fill="#eef5fc" stroke="#7d94aa" stroke-width="1.6"/>
<text x="856.5" y="298.5" font-family="Segoe UI,Arial,sans-serif" font-size="19" fill="#152d46" text-anchor="middle">Weight SRAM A/B · 512 байт</text>
<text x="856.5" y="323.5" font-family="Segoe UI,Arial,sans-serif" font-size="19" fill="#152d46" text-anchor="middle">4 независимых банка: bank = lane; addr = local_k</text>
<polyline points="775,195 775,260" fill="none" stroke="#42566d" stroke-width="2" marker-end="url(#arrow)"/>
<polyline points="610,195 610,225 220,225 220,260" fill="none" stroke="#42566d" stroke-width="2" marker-end="url(#arrow)"/>
<polyline points="265,195 265,237 445,237 445,300 475,300" fill="none" stroke="#42566d" stroke-width="2" stroke-dasharray="7 5" marker-end="url(#arrow)"/>
<rect x="460" y="395" width="178" height="60" rx="10" fill="#eef5fc" stroke="#7d94aa" stroke-width="1.6"/>
<text x="549.0" y="431.0" font-family="Segoe UI,Arial,sans-serif" font-size="18" fill="#152d46" text-anchor="middle">W bank 0</text>
<rect x="460" y="495" width="178" height="60" rx="10" fill="#e4f3ee" stroke="#7d94aa" stroke-width="1.6"/>
<text x="549.0" y="531.0" font-family="Segoe UI,Arial,sans-serif" font-size="18" fill="#152d46" text-anchor="middle">W reg 0</text>
<rect x="460" y="625" width="178" height="60" rx="10" fill="#e4f3ee" stroke="#7d94aa" stroke-width="1.6"/>
<text x="549.0" y="661.0" font-family="Segoe UI,Arial,sans-serif" font-size="19" fill="#152d46" text-anchor="middle">MAC 0</text>
<rect x="460" y="765" width="178" height="75" rx="10" fill="#eef5fc" stroke="#7d94aa" stroke-width="1.6"/>
<text x="549.0" y="796.0" font-family="Segoe UI,Arial,sans-serif" font-size="17" fill="#152d46" text-anchor="middle">ACC[0…7][0]</text>
<text x="549.0" y="821.0" font-family="Segoe UI,Arial,sans-serif" font-size="17" fill="#152d46" text-anchor="middle">8 контекстов</text>
<polyline points="549,350 549,395" fill="none" stroke="#42566d" stroke-width="2" marker-end="url(#arrow)"/>
<polyline points="549,455 549,495" fill="none" stroke="#42566d" stroke-width="2" marker-end="url(#arrow)"/>
<polyline points="549,555 549,625" fill="none" stroke="#42566d" stroke-width="2" marker-end="url(#arrow)"/>
<polyline points="549,685 549,765" fill="none" stroke="#42566d" stroke-width="2" marker-end="url(#arrow)"/>
<polyline points="615,765 615,725 648,725 648,655 638,655" fill="none" stroke="#42566d" stroke-width="2" marker-end="url(#arrow)"/>
<polyline points="100,350 100,590 485,590 485,625" fill="none" stroke="#42566d" stroke-width="2" marker-end="url(#arrow)"/>
<rect x="660" y="395" width="178" height="60" rx="10" fill="#eef5fc" stroke="#7d94aa" stroke-width="1.6"/>
<text x="749.0" y="431.0" font-family="Segoe UI,Arial,sans-serif" font-size="18" fill="#152d46" text-anchor="middle">W bank 1</text>
<rect x="660" y="495" width="178" height="60" rx="10" fill="#e4f3ee" stroke="#7d94aa" stroke-width="1.6"/>
<text x="749.0" y="531.0" font-family="Segoe UI,Arial,sans-serif" font-size="18" fill="#152d46" text-anchor="middle">W reg 1</text>
<rect x="660" y="625" width="178" height="60" rx="10" fill="#e4f3ee" stroke="#7d94aa" stroke-width="1.6"/>
<text x="749.0" y="661.0" font-family="Segoe UI,Arial,sans-serif" font-size="19" fill="#152d46" text-anchor="middle">MAC 1</text>
<rect x="660" y="765" width="178" height="75" rx="10" fill="#eef5fc" stroke="#7d94aa" stroke-width="1.6"/>
<text x="749.0" y="796.0" font-family="Segoe UI,Arial,sans-serif" font-size="17" fill="#152d46" text-anchor="middle">ACC[0…7][1]</text>
<text x="749.0" y="821.0" font-family="Segoe UI,Arial,sans-serif" font-size="17" fill="#152d46" text-anchor="middle">8 контекстов</text>
<polyline points="749,350 749,395" fill="none" stroke="#42566d" stroke-width="2" marker-end="url(#arrow)"/>
<polyline points="749,455 749,495" fill="none" stroke="#42566d" stroke-width="2" marker-end="url(#arrow)"/>
<polyline points="749,555 749,625" fill="none" stroke="#42566d" stroke-width="2" marker-end="url(#arrow)"/>
<polyline points="749,685 749,765" fill="none" stroke="#42566d" stroke-width="2" marker-end="url(#arrow)"/>
<polyline points="815,765 815,725 848,725 848,655 838,655" fill="none" stroke="#42566d" stroke-width="2" marker-end="url(#arrow)"/>
<polyline points="100,350 100,590 685,590 685,625" fill="none" stroke="#42566d" stroke-width="2" marker-end="url(#arrow)"/>
<rect x="860" y="395" width="178" height="60" rx="10" fill="#eef5fc" stroke="#7d94aa" stroke-width="1.6"/>
<text x="949.0" y="431.0" font-family="Segoe UI,Arial,sans-serif" font-size="18" fill="#152d46" text-anchor="middle">W bank 2</text>
<rect x="860" y="495" width="178" height="60" rx="10" fill="#e4f3ee" stroke="#7d94aa" stroke-width="1.6"/>
<text x="949.0" y="531.0" font-family="Segoe UI,Arial,sans-serif" font-size="18" fill="#152d46" text-anchor="middle">W reg 2</text>
<rect x="860" y="625" width="178" height="60" rx="10" fill="#e4f3ee" stroke="#7d94aa" stroke-width="1.6"/>
<text x="949.0" y="661.0" font-family="Segoe UI,Arial,sans-serif" font-size="19" fill="#152d46" text-anchor="middle">MAC 2</text>
<rect x="860" y="765" width="178" height="75" rx="10" fill="#eef5fc" stroke="#7d94aa" stroke-width="1.6"/>
<text x="949.0" y="796.0" font-family="Segoe UI,Arial,sans-serif" font-size="17" fill="#152d46" text-anchor="middle">ACC[0…7][2]</text>
<text x="949.0" y="821.0" font-family="Segoe UI,Arial,sans-serif" font-size="17" fill="#152d46" text-anchor="middle">8 контекстов</text>
<polyline points="949,350 949,395" fill="none" stroke="#42566d" stroke-width="2" marker-end="url(#arrow)"/>
<polyline points="949,455 949,495" fill="none" stroke="#42566d" stroke-width="2" marker-end="url(#arrow)"/>
<polyline points="949,555 949,625" fill="none" stroke="#42566d" stroke-width="2" marker-end="url(#arrow)"/>
<polyline points="949,685 949,765" fill="none" stroke="#42566d" stroke-width="2" marker-end="url(#arrow)"/>
<polyline points="1015,765 1015,725 1048,725 1048,655 1038,655" fill="none" stroke="#42566d" stroke-width="2" marker-end="url(#arrow)"/>
<polyline points="100,350 100,590 885,590 885,625" fill="none" stroke="#42566d" stroke-width="2" marker-end="url(#arrow)"/>
<rect x="1060" y="395" width="178" height="60" rx="10" fill="#eef5fc" stroke="#7d94aa" stroke-width="1.6"/>
<text x="1149.0" y="431.0" font-family="Segoe UI,Arial,sans-serif" font-size="18" fill="#152d46" text-anchor="middle">W bank 3</text>
<rect x="1060" y="495" width="178" height="60" rx="10" fill="#e4f3ee" stroke="#7d94aa" stroke-width="1.6"/>
<text x="1149.0" y="531.0" font-family="Segoe UI,Arial,sans-serif" font-size="18" fill="#152d46" text-anchor="middle">W reg 3</text>
<rect x="1060" y="625" width="178" height="60" rx="10" fill="#e4f3ee" stroke="#7d94aa" stroke-width="1.6"/>
<text x="1149.0" y="661.0" font-family="Segoe UI,Arial,sans-serif" font-size="19" fill="#152d46" text-anchor="middle">MAC 3</text>
<rect x="1060" y="765" width="178" height="75" rx="10" fill="#eef5fc" stroke="#7d94aa" stroke-width="1.6"/>
<text x="1149.0" y="796.0" font-family="Segoe UI,Arial,sans-serif" font-size="17" fill="#152d46" text-anchor="middle">ACC[0…7][3]</text>
<text x="1149.0" y="821.0" font-family="Segoe UI,Arial,sans-serif" font-size="17" fill="#152d46" text-anchor="middle">8 контекстов</text>
<polyline points="1149,350 1149,395" fill="none" stroke="#42566d" stroke-width="2" marker-end="url(#arrow)"/>
<polyline points="1149,455 1149,495" fill="none" stroke="#42566d" stroke-width="2" marker-end="url(#arrow)"/>
<polyline points="1149,555 1149,625" fill="none" stroke="#42566d" stroke-width="2" marker-end="url(#arrow)"/>
<polyline points="1149,685 1149,765" fill="none" stroke="#42566d" stroke-width="2" marker-end="url(#arrow)"/>
<polyline points="1215,765 1215,725 1248,725 1248,655 1238,655" fill="none" stroke="#42566d" stroke-width="2" marker-end="url(#arrow)"/>
<polyline points="100,350 100,590 1085,590 1085,625" fill="none" stroke="#42566d" stroke-width="2" marker-end="url(#arrow)"/>
<text x="235" y="390" font-family="Segoe UI,Arial,sans-serif" font-size="16" fill="#152d46" text-anchor="middle">8 × 16 входов — только часть K</text>
<text x="235" y="414" font-family="Segoe UI,Arial,sans-serif" font-size="16" fill="#152d46" text-anchor="middle">текущего microbatch</text>
<text x="240" y="470" font-family="Segoe UI,Arial,sans-serif" font-size="19" fill="#152d46" text-anchor="middle">одно x[m,t]</text>
<text x="240" y="502" font-family="Segoe UI,Arial,sans-serif" font-size="18" fill="#152d46" text-anchor="middle">broadcast на 4 MAC</text>
<text x="220" y="647" font-family="Segoe UI,Arial,sans-serif" font-size="18" fill="#152d46" text-anchor="middle">4 веса удерживаются</text>
<text x="220" y="676" font-family="Segoe UI,Arial,sans-serif" font-size="18" fill="#152d46" text-anchor="middle">при смене m</text>
<text x="220" y="785" font-family="Segoe UI,Arial,sans-serif" font-size="18" fill="#152d46" text-anchor="middle">ACC не выгружаются</text>
<text x="220" y="814" font-family="Segoe UI,Arial,sans-serif" font-size="18" fill="#152d46" text-anchor="middle">между K-tiles</text>
<rect x="42" y="880" width="1196" height="78" rx="10" fill="#f5f7fa" stroke="#7d94aa" stroke-width="1.6"/>
<text x="640.0" y="912.5" font-family="Segoe UI,Arial,sans-serif" font-size="18" fill="#152d46" text-anchor="middle">ACC: частичные суммы для 8 изображений × 4 выходов.</text>
<text x="640.0" y="937.5" font-family="Segoe UI,Arial,sans-serif" font-size="18" fill="#152d46" text-anchor="middle">После всех K-tiles: ACC[m,lane] → общая редукция четырёх PE.</text>
<text x="42" y="979" font-family="Segoe UI,Arial,sans-serif" font-size="14" fill="#687a8b" text-anchor="start">mlp-accelerator-sim · Архитектура · Базовая конфигурация: 4 PE</text>
</svg>